<?xml version="1.0" standalone="no"?>
<!DOCTYPE svg PUBLIC "-//W3C//DTD SVG 20010904//EN"
 "http://www.w3.org/TR/2001/REC-SVG-20010904/DTD/svg10.dtd">
<svg version="1.0" xmlns="http://www.w3.org/2000/svg"
 width="512.000000pt" height="512.000000pt" viewBox="0 0 512.000000 512.000000"
 preserveAspectRatio="xMidYMid meet">

<g transform="translate(0.000000,512.000000) scale(0.100000,-0.100000)"
fill="#000000" stroke="none">
<path d="M497 3983 c-3 -3 3 -19 14 -36 23 -39 25 -119 4 -197 -21 -75 -21
-160 0 -201 76 -150 273 -183 421 -71 l50 39 34 -19 c19 -10 55 -18 79 -18
l45 0 -26 28 c-50 53 -60 103 -36 173 43 126 157 183 263 133 86 -40 105 -174
25 -174 -42 0 -63 25 -55 67 6 32 5 33 -25 33 -61 0 -100 -45 -100 -116 0 -50
70 -123 121 -126 46 -2 54 -1 92 6 l33 6 -4 -40 c-4 -38 -2 -41 33 -56 69 -28
133 7 121 66 -5 28 -4 31 16 24 34 -10 113 -7 139 6 70 36 101 103 75 163 -18
43 -51 67 -93 67 -36 0 -38 -2 -22 -31 16 -30 -13 -69 -50 -69 -37 0 -55 23
-54 67 4 123 189 170 279 71 40 -43 64 -104 64 -162 0 -47 -4 -60 -30 -89 -17
-19 -30 -37 -30 -41 0 -3 21 -6 46 -6 48 0 81 13 100 39 10 13 16 11 48 -17
53 -46 127 -81 189 -88 100 -12 208 38 257 118 l16 27 34 -47 c50 -67 114 -96
210 -96 62 -1 85 4 130 26 30 15 70 43 89 62 l33 34 22 -25 c18 -21 34 -27 79
-31 58 -5 71 4 41 29 -60 50 -58 150 7 245 48 71 144 96 223 59 85 -41 106
-175 26 -175 -41 0 -63 26 -57 67 5 31 4 33 -24 33 -41 0 -66 -15 -84 -50 -58
-112 52 -217 195 -187 l36 7 -4 -38 c-5 -49 16 -67 75 -67 56 0 88 32 79 78
-5 25 -4 28 16 21 38 -12 114 -7 145 10 60 30 91 96 73 151 -15 45 -54 75 -96
75 -37 0 -39 -2 -23 -31 28 -53 -61 -96 -95 -47 -22 31 -20 59 7 98 59 89 191
98 263 18 72 -78 87 -191 34 -251 -16 -19 -30 -37 -30 -41 0 -3 22 -6 49 -6
39 0 56 6 81 26 l31 27 42 -41 c62 -61 126 -86 217 -86 57 0 85 5 116 21 76
40 134 126 134 198 0 11 -9 54 -20 95 -25 95 -25 136 0 185 11 22 20 41 20 43
0 9 -61 -8 -84 -23 -28 -19 -60 -80 -53 -104 3 -14 -4 -17 -49 -17 -44 0 -59
-5 -91 -30 -61 -50 -69 -119 -18 -170 16 -16 35 -24 59 -24 34 0 35 1 26 24
-12 33 16 69 54 69 36 0 50 -16 50 -57 0 -100 -130 -159 -234 -106 -101 51
-137 234 -61 302 18 16 29 33 26 38 -3 6 -31 10 -61 10 -47 0 -60 -4 -83 -28
l-28 -28 -34 29 c-49 42 -125 75 -190 83 -103 12 -214 -39 -255 -118 l-15 -29
-26 38 c-52 77 -113 107 -218 108 -67 0 -89 -4 -135 -27 -30 -15 -70 -42 -88
-61 l-33 -34 -29 28 c-24 24 -37 29 -79 29 -50 0 -65 -11 -38 -27 30 -19 47
-59 47 -113 0 -45 -6 -66 -32 -110 -45 -72 -75 -93 -145 -97 -98 -7 -168 47
-168 128 0 46 25 73 59 63 26 -7 58 -44 52 -58 -19 -47 -19 -46 17 -46 46 0
84 32 97 80 30 111 -102 201 -225 154 -15 -6 -16 -2 -10 24 5 26 2 36 -20 58
-22 22 -33 26 -66 21 -56 -7 -71 -23 -67 -69 4 -38 3 -39 -22 -31 -14 4 -46 7
-71 7 -110 -2 -180 -104 -134 -194 18 -35 43 -50 84 -50 29 0 30 2 28 42 -2
37 1 44 26 56 69 34 107 -61 51 -128 -35 -41 -74 -60 -124 -60 -81 0 -135 38
-176 125 -38 81 -31 138 24 198 l26 27 -48 0 c-50 0 -100 -20 -109 -44 -5 -11
-15 -6 -44 21 -50 46 -130 83 -196 90 -102 10 -213 -42 -253 -119 l-15 -29
-26 38 c-52 77 -113 107 -218 107 -87 1 -145 -20 -207 -73 -22 -17 -33 -22
-36 -13 -11 33 -115 55 -151 33 -12 -8 -8 -15 17 -36 17 -15 37 -44 43 -66 25
-82 -32 -214 -106 -245 -105 -43 -225 13 -225 105 0 44 14 61 50 61 36 0 62
-30 58 -66 -3 -27 0 -29 27 -27 44 3 85 53 85 103 0 73 -92 143 -165 124 -22
-5 -25 -3 -25 20 0 36 -23 89 -50 114 -24 22 -75 44 -83 35z"/>
<path d="M935 3200 c-98 -11 -189 -36 -265 -73 -85 -41 -187 -141 -229 -225
-103 -205 -103 -552 1 -772 42 -87 141 -186 228 -228 135 -64 326 -91 510 -72
319 31 498 171 572 445 31 116 31 374 0 490 -62 228 -198 361 -422 414 -95 23
-291 34 -395 21z m283 -247 c72 -22 147 -90 183 -166 38 -82 53 -179 46 -317
-9 -222 -89 -351 -245 -396 -80 -24 -239 -16 -310 15 -112 50 -172 155 -194
343 -21 179 16 350 95 436 95 102 261 136 425 85z"/>
<path d="M2455 3200 c-361 -39 -542 -242 -561 -630 -17 -327 88 -558 300 -665
185 -92 471 -107 714 -39 l93 27 23 -22 c21 -20 33 -21 194 -21 101 0 172 4
172 9 0 6 -8 16 -19 23 -10 7 -55 48 -100 90 l-82 78 35 72 c59 121 78 210 79
383 1 154 -8 218 -45 330 -40 122 -138 235 -253 293 -132 66 -344 94 -550 72z
m304 -252 c75 -27 151 -104 180 -182 66 -176 48 -445 -37 -571 -68 -99 -166
-139 -326 -133 -86 3 -110 8 -158 31 -65 32 -122 90 -150 153 -26 60 -48 181
-48 267 0 318 146 480 414 461 38 -3 94 -15 125 -26z"/>
<path d="M3502 2683 c5 -581 4 -575 94 -673 62 -66 138 -110 249 -142 71 -21
101 -23 275 -23 174 0 204 2 275 23 141 41 239 111 284 205 45 93 51 168 51
653 l0 454 -149 0 -150 0 -3 -468 -3 -468 -30 -59 c-39 -76 -100 -112 -206
-124 -158 -17 -288 17 -335 89 -51 76 -54 110 -54 588 l0 442 -151 0 -150 0 3
-497z"/>
<path d="M3533 1719 c-35 -10 -49 -39 -41 -83 4 -22 3 -23 -19 -15 -37 14
-110 11 -142 -6 -49 -25 -81 -72 -81 -119 0 -50 21 -83 66 -102 33 -14 91 -5
66 10 -18 11 -14 51 6 69 43 39 92 12 92 -50 0 -116 -170 -171 -269 -88 -42
36 -81 119 -81 174 0 48 28 107 55 117 25 10 6 24 -31 24 -44 0 -102 -24 -110
-45 -6 -14 -13 -10 -43 19 -126 122 -344 117 -434 -10 l-30 -43 -28 38 c-52
73 -121 105 -219 105 -78 -1 -151 -31 -214 -86 l-40 -35 -21 25 c-17 20 -34
26 -78 30 -31 2 -57 1 -57 -3 0 -4 14 -23 30 -42 76 -87 6 -266 -119 -304 -99
-30 -216 60 -192 147 4 15 14 32 22 37 42 26 109 -32 79 -68 -17 -20 -8 -28
30 -28 37 0 75 34 90 79 15 46 -14 113 -62 142 -39 24 -124 30 -159 11 -19
-10 -20 -8 -14 24 9 49 -19 77 -78 77 -56 0 -81 -25 -75 -73 4 -33 2 -34 -20
-26 -36 14 -110 11 -141 -6 -73 -37 -99 -110 -65 -176 18 -37 73 -62 105 -51
15 6 18 11 11 16 -18 11 -14 51 6 69 25 23 69 22 82 -2 26 -50 -3 -127 -62
-157 -46 -24 -125 -23 -168 2 -46 26 -97 104 -105 158 -9 60 1 100 34 135 16
17 26 33 23 36 -12 12 -70 4 -106 -15 l-39 -19 -38 30 c-151 119 -355 94 -430
-54 -25 -47 -26 -117 -5 -207 22 -91 20 -158 -4 -198 -26 -42 -25 -45 7 -37
62 15 113 83 113 150 0 22 3 24 29 19 73 -15 161 54 161 126 0 55 -39 100 -87
100 -33 0 -34 -1 -28 -29 9 -43 -22 -69 -75 -61 -21 3 -30 20 -30 61 0 68 65
119 151 119 86 0 156 -62 179 -160 16 -67 6 -113 -35 -159 -19 -21 -32 -41
-28 -45 3 -3 31 -6 60 -6 44 0 58 5 79 25 l24 25 46 -35 c129 -98 321 -80 401
38 l32 48 15 -28 c18 -35 61 -75 106 -99 26 -14 57 -19 120 -19 96 0 145 18
219 81 42 36 42 37 57 16 17 -25 86 -46 122 -37 l25 6 -25 27 c-14 15 -31 37
-37 49 -39 76 32 228 122 262 95 36 202 -19 214 -108 9 -68 -34 -101 -86 -65
-20 14 -22 22 -17 55 6 38 6 39 -25 39 -47 0 -99 -56 -99 -106 0 -103 125
-173 230 -130 13 5 15 -1 12 -33 -3 -31 0 -42 19 -55 27 -19 71 -21 102 -5 32
17 38 30 32 68 -6 30 -4 33 12 27 91 -36 185 -1 220 81 29 70 -22 153 -93 153
-38 0 -38 1 -24 -35 8 -22 6 -30 -15 -51 -27 -26 -37 -29 -65 -14 -26 14 -34
61 -17 102 33 79 141 110 227 66 63 -32 110 -111 110 -186 0 -57 -19 -105 -47
-121 -14 -7 -15 -13 -6 -21 17 -18 89 -2 124 27 l29 25 41 -37 c66 -59 121
-80 214 -80 104 0 165 28 212 98 l32 48 15 -28 c18 -35 61 -75 106 -99 26 -14
56 -19 120 -19 95 1 147 20 216 79 l37 32 28 -28 c24 -25 35 -28 88 -28 34 0
61 3 61 6 0 4 -16 24 -35 45 -35 39 -40 59 -35 134 2 39 32 104 60 134 69 71
197 66 254 -12 26 -35 27 -94 1 -113 -27 -20 -42 -17 -70 10 -21 21 -23 29
-15 50 9 25 8 26 -23 26 -62 0 -105 -57 -93 -124 12 -64 103 -119 170 -102 20
5 23 3 19 -13 -13 -50 58 -131 115 -131 l22 0 -20 40 c-25 49 -25 94 0 189 11
41 20 83 20 94 0 74 -69 172 -142 202 -60 24 -173 23 -232 -4 -25 -11 -68 -41
-96 -67 -27 -26 -50 -42 -50 -35 0 21 -64 51 -107 51 -24 0 -43 -3 -43 -6 0
-4 14 -22 30 -41 43 -48 44 -116 5 -194 -46 -89 -128 -133 -207 -110 -87 26
-140 111 -104 166 10 16 26 25 41 25 30 0 69 -36 61 -56 -3 -8 -9 -21 -12 -29
-6 -15 9 -20 51 -16 28 2 63 38 76 78 9 29 8 40 -13 80 -15 30 -35 53 -58 65
-39 20 -120 24 -152 7 -19 -10 -19 -9 -13 20 8 39 -7 66 -46 80 -18 6 -32 11
-33 10 -1 0 -16 -5 -33 -10z"/>
</g>
</svg>
