<?xml version="1.0" standalone="no"?>
<!DOCTYPE svg PUBLIC "-//W3C//DTD SVG 20010904//EN"
 "http://www.w3.org/TR/2001/REC-SVG-20010904/DTD/svg10.dtd">
<svg version="1.0" xmlns="http://www.w3.org/2000/svg"
 width="1599.000000pt" height="1650.000000pt" viewBox="0 0 1599.000000 1650.000000"
 preserveAspectRatio="xMidYMid meet">

<g transform="translate(0.000000,1650.000000) scale(0.100000,-0.100000)"
fill="#000000" stroke="none">
<path d="M8770 16493 c-959 -66 -1769 -372 -2216 -835 -152 -157 -244 -292
-417 -608 -52 -96 -115 -209 -139 -250 -25 -41 -82 -147 -128 -235 -128 -246
-197 -342 -273 -382 -47 -24 -177 -53 -239 -53 -32 0 -58 -4 -58 -9 0 -17 113
-24 193 -13 186 27 259 95 439 412 52 91 124 212 160 270 36 58 107 177 158
265 113 195 207 333 302 445 l73 85 3 -43 c3 -39 9 -47 77 -106 81 -69 175
-114 295 -143 l69 -17 -85 -43 c-410 -207 -865 -682 -1120 -1168 -31 -60 -58
-111 -59 -113 -1 -1 -41 -8 -88 -14 -187 -25 -363 35 -512 174 -41 38 -75 67
-75 63 0 -4 14 -27 32 -51 47 -65 131 -131 227 -177 78 -38 90 -41 192 -45 65
-3 127 0 155 7 25 7 48 10 50 8 2 -2 -18 -60 -45 -128 -162 -408 -241 -861
-228 -1304 23 -751 314 -1459 821 -1993 68 -71 225 -212 330 -296 l48 -39 -58
-22 c-305 -115 -523 -342 -552 -575 l-7 -55 -90 -6 c-112 -8 -162 -22 -246
-65 -114 -60 -188 -155 -310 -397 -102 -202 -132 -386 -90 -541 39 -140 115
-271 237 -405 l59 -64 1 -171 c1 -177 14 -282 58 -492 14 -66 37 -181 51 -257
45 -237 140 -547 167 -547 6 0 8 11 5 28 -3 15 -24 111 -47 214 -22 102 -53
262 -70 355 -16 92 -40 218 -54 278 -32 138 -63 341 -72 468 l-7 97 47 -26
c52 -29 135 -54 182 -54 46 0 115 27 147 58 l28 27 -20 -47 c-66 -154 -98
-309 -116 -563 -18 -235 -18 -377 -3 -520 6 -60 10 -165 9 -233 -2 -74 2 -136
9 -158 7 -19 10 -37 8 -39 -2 -3 -22 4 -44 15 -122 61 -345 78 -516 40 -237
-52 -484 -187 -657 -361 -135 -135 -220 -277 -306 -513 -119 -329 -167 -611
-166 -981 0 -243 13 -372 57 -547 15 -59 26 -110 23 -112 -2 -3 -30 4 -62 14
-96 32 -176 43 -302 43 -168 -1 -351 -45 -472 -114 -100 -58 -213 -180 -213
-232 0 -14 14 -6 61 37 219 198 662 256 931 120 74 -37 181 -150 258 -272 160
-253 243 -375 327 -477 111 -136 171 -192 343 -325 74 -58 163 -132 196 -165
100 -99 147 -215 148 -370 1 -49 6 -92 11 -94 16 -5 44 83 51 159 7 67 8 70
48 96 23 15 60 42 83 60 23 19 48 34 55 34 48 0 201 246 286 460 85 216 140
462 157 705 3 50 8 116 11 148 l6 57 36 -34 c73 -71 200 -124 362 -152 164
-27 456 -12 591 31 15 5 26 -9 57 -72 22 -43 59 -123 82 -178 99 -233 242
-495 391 -715 90 -134 130 -175 241 -250 66 -44 89 -67 119 -118 37 -60 37
-62 13 -56 -13 3 -24 4 -24 2 0 -3 32 -45 70 -94 47 -60 97 -141 150 -248 44
-88 103 -190 131 -227 51 -70 202 -219 273 -271 65 -48 211 -117 320 -153 104
-34 114 -42 102 -89 -5 -19 -15 -24 -51 -29 -76 -11 -119 -47 -56 -47 16 0 42
-3 59 -6 l30 -6 -19 -55 c-48 -139 -123 -232 -335 -415 -190 -163 -223 -197
-261 -271 -31 -62 -42 -173 -23 -232 18 -54 81 -119 143 -146 67 -29 172 -34
457 -20 244 11 356 34 476 94 144 73 213 138 381 362 152 202 172 217 393 305
314 125 441 208 518 338 24 41 27 57 27 132 0 113 -29 174 -134 281 -78 79
-160 171 -197 221 -11 15 -24 25 -27 22 -18 -19 67 -165 183 -312 28 -35 50
-66 50 -70 0 -14 -179 -124 -250 -153 -40 -17 -118 -42 -174 -56 -122 -30
-220 -74 -302 -136 -89 -68 -151 -154 -127 -178 8 -8 40 4 115 44 118 63 208
97 349 132 170 42 293 116 373 225 48 65 56 63 56 -14 0 -88 -100 -189 -266
-267 -44 -21 -154 -65 -243 -98 -243 -88 -292 -127 -487 -383 -122 -159 -181
-215 -278 -265 -112 -57 -231 -82 -460 -96 -334 -20 -380 -15 -437 50 -29 33
-31 40 -27 94 7 90 53 150 279 360 l125 117 89 -35 c50 -19 120 -57 158 -84
75 -55 92 -60 82 -26 -22 69 -99 129 -216 167 l-77 25 39 65 c21 36 40 69 42
73 5 14 197 -25 231 -47 17 -12 40 -40 51 -64 22 -47 38 -50 43 -8 5 39 -34
112 -71 135 -38 22 -120 41 -184 41 -42 0 -45 2 -39 22 4 13 11 44 17 71 9 42
14 47 37 47 45 0 147 -28 243 -65 111 -44 134 -36 71 24 -61 58 -156 101 -254
115 -80 11 -83 13 -86 39 -3 24 -1 27 20 22 13 -2 43 -9 68 -15 69 -15 289
-12 368 5 214 45 356 125 479 271 61 72 113 100 204 110 81 8 126 29 145 65
13 27 12 33 -9 30 -4 -1 -2 8 5 19 8 13 24 20 43 20 17 0 55 15 85 33 103 61
160 170 160 306 0 138 -39 227 -143 330 -87 85 -143 124 -280 192 -146 72
-510 316 -599 401 -90 86 -115 133 -127 238 -13 113 -34 177 -77 241 -24 36
-33 60 -29 73 42 145 47 178 54 371 l7 200 46 130 c26 72 70 191 98 265 59
151 103 316 121 447 7 49 16 92 20 97 5 5 57 -15 121 -47 62 -32 147 -66 189
-76 176 -45 423 -52 553 -16 303 82 640 372 841 723 131 229 225 470 310 792
57 219 92 325 167 514 130 327 317 577 573 767 l100 73 125 13 c224 23 382 65
559 149 179 84 368 233 478 376 82 107 161 278 194 418 6 25 16 96 23 159 l11
113 32 -79 c107 -261 311 -446 569 -514 70 -19 87 -20 136 -10 53 11 57 15 72
53 11 25 13 44 8 52 -10 12 -31 122 -83 425 -70 413 -161 612 -336 738 -42 30
-97 58 -146 74 l-79 26 73 46 c108 67 127 84 154 137 21 41 23 52 13 86 -6 23
-28 57 -53 81 -36 37 -48 43 -84 43 -40 0 -47 -5 -139 -98 -53 -54 -162 -153
-242 -220 l-145 -122 -67 67 c-38 37 -68 61 -68 54 0 -7 20 -42 46 -77 25 -35
42 -69 39 -74 -3 -5 -62 -53 -130 -105 -119 -92 -191 -134 -227 -135 -16 0
-38 27 -38 48 0 5 44 65 97 133 462 591 1082 1421 1210 1621 25 40 70 105 99
143 63 84 84 137 84 216 l0 59 -106 87 c-145 120 -257 194 -399 263 -192 93
-219 89 -72 -11 141 -96 313 -230 407 -319 l84 -79 -79 -118 c-85 -127 -360
-494 -583 -781 -145 -186 -865 -1124 -1091 -1422 -349 -459 -727 -970 -839
-1136 l-62 -91 -46 10 c-33 8 -126 7 -323 -1 -279 -13 -405 -9 -398 12 2 6 11
10 19 8 18 -3 91 89 257 328 67 96 127 177 132 178 5 2 29 -12 53 -31 48 -40
107 -72 149 -83 36 -8 35 10 -3 32 -20 12 -26 20 -18 25 8 5 -22 24 -75 48
-48 22 -87 42 -87 45 0 12 125 186 133 186 4 0 26 -14 48 -32 54 -43 63 -25
11 23 -23 22 -42 42 -42 45 0 2 33 53 73 113 l72 108 42 -47 c49 -55 146 -124
165 -117 8 3 -25 40 -87 99 l-99 95 74 114 c101 156 90 147 144 115 25 -15 46
-22 46 -17 0 9 -30 36 -65 56 -16 10 -8 26 75 150 51 77 94 142 96 143 1 2 24
-14 51 -35 56 -43 180 -109 190 -100 10 10 -16 35 -86 85 -37 25 -80 56 -98
69 l-32 23 87 134 c85 131 87 133 114 124 15 -5 35 -8 45 -6 13 3 8 9 -20 21
l-38 16 36 56 c61 96 88 135 91 135 3 0 30 -17 62 -39 71 -48 122 -74 130 -67
9 10 -29 45 -100 92 -37 24 -68 47 -68 51 0 3 39 66 86 139 l86 134 30 -25
c16 -14 35 -25 41 -25 7 1 -3 13 -20 29 -18 15 -33 33 -33 39 0 9 41 76 115
189 1 2 54 -24 118 -58 83 -43 117 -56 117 -46 0 23 -51 61 -136 101 -74 35
-76 37 -62 59 8 12 32 50 53 85 21 34 42 62 47 62 6 0 23 -9 40 -21 42 -30 46
-17 4 17 l-35 29 70 110 c38 61 73 111 78 113 4 1 42 -24 83 -57 115 -90 228
-149 228 -118 0 17 -177 155 -240 187 -25 12 -46 24 -48 25 -3 2 106 181 123
203 1 1 23 -14 49 -34 63 -48 73 -33 14 20 l-46 42 41 65 c23 36 61 95 84 131
l42 67 35 -33 c42 -40 168 -136 179 -136 32 0 -61 96 -145 150 l-57 37 46 75
47 75 42 -56 c38 -51 144 -141 165 -141 24 0 0 34 -90 125 l-99 100 75 123
c41 68 72 126 68 130 -17 17 -234 -252 -457 -568 -205 -292 -467 -679 -835
-1236 -25 -38 4 31 62 146 121 241 274 586 291 655 7 29 6 29 -12 13 -24 -21
-60 -14 -91 19 -22 23 -83 33 -83 13 0 -5 -9 -14 -19 -20 -27 -14 -69 23 -117
105 -33 55 -45 67 -78 76 -27 7 -42 7 -49 0 -20 -20 -94 -13 -117 11 -11 12
-20 26 -20 31 0 5 22 30 48 56 26 25 102 104 167 174 l118 128 14 -33 c17 -41
58 -85 98 -105 35 -19 132 -21 165 -3 12 6 24 10 26 8 2 -3 -3 -71 -12 -151
-8 -81 -14 -171 -12 -200 3 -50 4 -51 15 -24 42 95 126 631 127 813 1 135 -6
154 -57 154 -24 0 -47 -17 -119 -87 -183 -179 -434 -476 -531 -630 -29 -45
-56 -82 -60 -83 -15 0 -58 -55 -108 -139 -58 -97 -329 -615 -329 -630 0 -5 -5
-13 -11 -17 -9 -5 -10 14 -4 72 11 125 31 216 131 604 271 1054 383 1679 400
2235 12 384 -31 631 -156 890 -122 253 -303 456 -559 627 -122 81 -226 135
-331 171 -194 66 -199 40 -17 -79 168 -110 306 -223 432 -356 159 -167 268
-346 340 -560 58 -173 69 -261 69 -533 1 -462 -61 -884 -313 -2145 -37 -185
-50 -236 -54 -210 -3 19 -10 68 -15 109 -13 92 -49 154 -117 200 -47 31 -54
33 -115 29 -73 -6 -147 -34 -185 -72 -13 -13 -27 -21 -30 -17 -20 33 -37 146
-42 276 -7 196 21 614 43 658 48 92 95 307 68 307 -5 0 -28 -37 -51 -82 l-42
-83 0 47 c-2 132 -64 624 -106 834 -27 133 -37 163 -195 534 -132 308 -145
364 -137 555 5 124 11 153 63 328 12 40 -18 12 -46 -42 -45 -91 -70 -193 -77
-316 -10 -203 27 -322 232 -730 66 -132 119 -247 118 -255 -3 -18 12 -279 32
-560 8 -113 18 -284 21 -380 l7 -175 -61 -76 c-51 -64 -112 -121 -112 -106 0
6 51 226 62 267 5 19 11 100 15 180 6 172 -14 312 -72 504 -51 165 -90 257
-215 516 -165 341 -243 603 -244 820 -1 78 3 104 22 145 27 59 82 118 137 148
l40 22 -34 3 c-119 12 -209 -70 -253 -227 -24 -88 -24 -237 2 -386 36 -209 77
-333 193 -585 113 -247 166 -383 211 -540 65 -227 81 -410 51 -570 -7 -41 -26
-148 -42 -237 l-28 -163 36 -36 36 -36 61 22 c41 15 81 40 121 76 32 30 61 54
63 54 1 0 3 -111 3 -248 1 -193 4 -263 17 -319 20 -85 60 -170 104 -221 34
-39 54 -40 34 -1 -11 19 -10 25 6 36 42 31 155 43 209 23 33 -13 61 -75 70
-155 11 -95 -11 -278 -41 -341 -33 -70 -118 -145 -200 -178 -70 -28 -207 -47
-318 -43 -80 2 -97 -13 -42 -40 20 -9 36 -20 36 -23 0 -14 -312 -311 -410
-391 -377 -307 -785 -540 -1173 -669 -525 -176 -1040 -205 -1593 -89 -891 185
-1662 705 -2081 1404 -387 644 -509 1394 -353 2165 107 529 318 962 683 1396
157 187 446 443 652 577 l40 26 170 -14 c188 -17 301 -35 402 -66 61 -19 73
-28 155 -114 49 -51 121 -115 161 -143 204 -141 467 -228 759 -251 116 -10
293 -2 318 14 20 12 0 23 -57 29 -578 67 -965 245 -1156 533 -52 78 -93 173
-103 234 l-7 42 47 -32 c158 -109 413 -187 685 -211 178 -16 356 -2 329 26 -4
3 -98 22 -210 40 -409 68 -655 166 -829 331 l-56 53 -54 -18 -54 -19 -3 -65
c-4 -94 29 -243 75 -338 21 -44 38 -80 37 -80 -1 0 -30 13 -65 29 -87 38 -170
57 -378 86 -288 41 -433 89 -521 175 l-45 44 54 9 c40 7 104 3 249 -13 272
-30 442 -29 488 4 14 11 0 14 -88 20 -102 6 -151 13 -388 55 -68 13 -159 21
-223 21 l-108 0 33 28 c62 54 183 139 288 202 514 311 1287 502 2025 502 327
0 547 -32 833 -118 451 -137 976 -444 1376 -804 75 -68 104 -84 74 -41 -12 16
-13 33 -6 74 15 93 -9 212 -67 326 -36 73 -99 150 -111 139 -4 -5 18 -74 48
-155 51 -135 97 -308 85 -319 -3 -3 -18 11 -33 32 -43 56 -234 225 -379 334
-434 328 -905 539 -1375 614 -191 30 -514 44 -720 29z m4471 -4563 c-13 -138
-22 -194 -32 -201 -26 -16 -101 -22 -139 -10 -37 11 -130 91 -130 112 0 6 68
80 152 165 112 114 154 151 160 141 4 -8 -1 -101 -11 -207z m-487 -755 c11
-29 69 -55 124 -55 28 0 52 -4 52 -8 0 -5 -39 -84 -86 -178 -47 -93 -275 -546
-505 -1006 -231 -461 -422 -838 -424 -838 -3 0 4 21 14 48 10 26 76 193 146
372 116 294 201 511 551 1402 60 153 112 278 115 278 4 0 9 -7 13 -15z m-755
-229 c-12 -128 -2 -326 21 -406 8 -28 2 -46 -45 -147 -51 -108 -56 -115 -74
-102 -10 8 -100 82 -198 164 -177 148 -180 151 -192 202 -15 65 -36 84 -26 24
4 -22 4 -41 0 -41 -4 0 -24 13 -44 28 -52 41 -99 67 -107 59 -28 -28 264 -303
480 -452 l73 -50 -58 -125 c-32 -69 -60 -129 -62 -133 -1 -5 -26 7 -55 26 -81
55 -148 72 -282 72 -163 -1 -268 -36 -434 -149 -104 -70 -202 -164 -273 -260
-54 -73 -123 -204 -143 -273 -15 -50 -27 -54 -36 -16 -12 47 -75 146 -133 207
-71 75 -179 146 -259 170 l-62 19 109 58 c127 66 306 178 436 270 288 204 592
498 718 692 28 43 43 57 54 52 9 -3 49 -10 89 -16 68 -9 136 -4 217 16 l27 7
0 -85 c0 -47 7 -117 15 -155 17 -83 53 -182 66 -182 12 0 12 -8 -10 150 -11
74 -22 169 -25 211 l-5 75 73 51 c52 37 85 69 112 111 22 32 40 58 42 57 1 -1
-3 -59 -9 -129z m-5135 -894 c57 -37 151 -94 209 -127 l105 -59 -72 -21 c-204
-60 -369 -200 -456 -388 -31 -66 -49 -147 -33 -147 5 0 34 41 64 92 95 161
217 274 424 392 l99 57 75 -33 75 -34 -2 -284 c-3 -273 -6 -334 -21 -313 -19
27 -85 64 -141 79 -100 25 -207 6 -339 -61 l-54 -27 5 44 c3 23 14 105 23 181
16 125 16 161 -1 144 -14 -14 -83 -306 -85 -361 -2 -51 0 -60 21 -76 23 -18
25 -17 89 15 91 46 155 66 226 72 79 7 137 -10 185 -53 l38 -35 -77 -77 c-277
-275 -493 -1032 -551 -1930 -7 -103 -7 -169 -1 -180 19 -33 27 5 121 543 100
574 154 812 234 1037 103 291 254 569 315 581 16 3 57 30 92 60 174 147 279
201 644 331 l130 46 135 -21 c87 -13 212 -22 355 -26 l220 -6 -45 -19 c-25
-11 -108 -38 -185 -60 -339 -99 -439 -158 -687 -405 -71 -69 -129 -125 -131
-122 -108 167 -209 250 -320 265 -42 6 -127 -10 -127 -24 0 -4 24 -8 53 -8 98
-2 204 -72 274 -183 36 -57 120 -151 136 -151 5 0 68 60 142 133 73 74 170
164 216 201 98 78 249 156 424 217 141 49 199 77 278 132 71 50 87 43 18 -7
-28 -21 -67 -57 -88 -80 -33 -37 -45 -44 -90 -49 -29 -3 -90 -18 -135 -33 -90
-29 -138 -66 -138 -109 0 -42 104 -106 172 -105 31 1 29 3 -32 34 -36 19 -73
43 -84 54 -18 21 -18 21 15 41 67 41 137 56 265 56 l122 0 98 -50 c78 -39 116
-66 175 -125 91 -90 169 -215 169 -271 0 -43 66 -178 149 -307 l54 -82 -17
-113 c-32 -211 -99 -422 -177 -553 -54 -93 -144 -178 -209 -199 l-54 -18 -46
50 c-47 51 -98 144 -129 235 -25 73 -41 74 -41 3 0 -50 -2 -56 -17 -50 -10 3
-103 31 -208 61 -224 64 -333 115 -416 192 -83 76 -119 154 -132 280 -17 170
7 256 83 294 64 32 82 81 84 229 1 88 3 99 28 131 36 48 104 79 184 86 68 5
82 17 37 29 -85 23 -187 -4 -261 -72 -45 -40 -55 -72 -69 -225 l-8 -85 -57
-37 c-73 -48 -93 -78 -107 -159 -34 -199 13 -388 126 -503 131 -134 306 -199
636 -237 85 -10 107 -16 107 -28 0 -25 58 -133 88 -164 24 -26 26 -33 24 -100
-4 -83 20 -171 73 -277 63 -125 181 -262 259 -302 23 -11 42 -22 44 -23 5 -4
-70 -185 -77 -185 -7 0 -132 220 -181 318 -73 148 -163 401 -221 620 -28 108
-44 107 -36 -1 20 -283 163 -676 348 -952 84 -126 240 -289 339 -355 35 -24
94 -56 130 -72 75 -32 56 -36 -55 -13 -246 52 -523 195 -780 402 -223 179
-295 300 -394 660 -54 197 -67 260 -76 378 -3 44 -8 101 -11 128 -18 149 -49
-87 -41 -309 6 -175 29 -288 88 -439 86 -215 228 -404 412 -546 l89 -69 -98
-46 c-318 -149 -725 -224 -1062 -196 -77 7 -188 21 -248 32 -60 10 -168 26
-241 35 -570 66 -929 211 -1223 492 -43 40 -82 73 -89 73 -24 0 -8 534 25 800
7 63 30 182 51 263 40 164 30 151 135 181 98 28 144 100 108 167 -10 17 -7 19
25 19 46 0 101 23 114 48 14 26 14 87 1 112 -8 15 -4 20 19 30 16 6 39 22 51
35 20 21 22 32 18 82 -8 79 -48 159 -119 237 l-60 65 48 95 48 96 62 -2 c50
-2 67 1 90 18 77 58 46 163 -89 296 -82 81 -179 126 -302 140 l-94 11 14 40
c71 202 207 341 504 519 52 32 96 57 98 58 2 0 50 -31 106 -68z m7596 16 c0
-12 -82 -73 -260 -192 -185 -125 -186 -124 -14 21 60 51 138 122 174 158 l65
65 17 -22 c10 -13 18 -26 18 -30z m-2784 -140 c35 -6 64 -15 64 -19 0 -4 -31
-74 -68 -155 l-69 -149 -70 -6 c-210 -19 -393 -171 -528 -439 -73 -146 -185
-537 -185 -648 0 -17 -4 -34 -10 -37 -5 -3 -10 1 -10 10 0 61 -124 347 -168
387 -15 14 -23 17 -20 8 43 -123 95 -300 116 -395 24 -112 26 -138 26 -380 0
-231 -2 -271 -22 -362 -85 -390 -278 -652 -570 -773 -123 -52 -243 -73 -422
-74 -179 -1 -258 17 -345 78 -130 93 -276 319 -314 485 -8 38 -7 42 7 36 121
-50 234 -15 347 108 121 130 209 355 222 565 4 72 9 100 17 92 20 -20 26 -9
26 49 0 65 -28 167 -60 220 -36 57 -13 47 63 -30 45 -46 116 -138 186 -243
125 -186 203 -271 286 -312 47 -22 65 -26 119 -22 53 3 73 10 114 38 49 33 94
90 72 90 -6 0 -37 -11 -70 -25 -68 -29 -128 -32 -175 -9 -42 20 -127 109 -190
199 -210 303 -306 395 -428 411 -45 6 -51 11 -93 70 -41 57 -43 64 -30 81 8
10 43 54 78 98 108 136 231 221 416 288 74 27 101 31 182 32 86 0 101 -3 162
-32 47 -22 87 -52 133 -99 l65 -67 0 35 c0 92 -99 206 -215 247 -213 75 -544
-31 -710 -226 -71 -85 -135 -204 -135 -254 0 -35 -27 -5 -35 39 -18 101 -121
257 -223 337 -63 51 -197 119 -252 130 -75 14 -75 15 -22 51 28 18 93 56 145
84 82 44 114 55 243 81 161 33 278 64 419 111 118 39 272 43 376 10 83 -27
170 -84 235 -153 95 -102 137 -201 180 -428 14 -75 28 -143 31 -151 10 -26 21
29 22 110 1 84 27 162 102 311 81 162 179 285 320 403 135 114 218 160 344
192 64 16 240 17 321 2z m2674 -134 c23 -13 21 -14 -25 -8 -57 7 -60 9 -50 24
7 12 35 6 75 -16z m-6806 -88 c132 -51 342 -117 465 -146 l54 -13 -114 -33
c-223 -64 -338 -124 -459 -240 l-75 -72 3 93 c2 50 -3 154 -12 230 -17 144
-20 235 -10 235 4 0 70 -24 148 -54z m6571 -13 c-11 -30 -35 -163 -36 -201 0
-35 -2 -32 -40 48 -22 47 -41 89 -42 94 -2 9 98 73 117 75 4 1 5 -7 1 -16z
m-157 -130 c107 -256 123 -562 41 -813 -54 -165 -140 -301 -275 -430 -183
-176 -404 -290 -689 -356 -216 -49 -529 -44 -636 12 -16 8 -57 43 -92 78 l-63
65 109 123 c195 219 537 632 960 1161 69 87 88 105 93 90 57 -166 165 -263
297 -263 31 0 57 4 57 9 0 5 -29 23 -65 40 -83 38 -129 74 -166 127 -33 49
-35 54 -14 54 31 0 123 38 181 75 l59 37 -34 -35 c-18 -19 -32 -40 -30 -46 2
-5 56 19 119 54 63 34 118 63 121 64 4 1 16 -20 27 -46z m-2378 -23 c0 -5 -10
-10 -22 -10 -19 0 -20 2 -8 10 19 13 30 13 30 0z m-5310 -150 c77 -15 147 -50
206 -103 55 -50 114 -133 114 -160 0 -22 -43 -22 -221 -1 -109 13 -147 14
-191 5 -57 -12 -98 -45 -90 -71 3 -8 76 -87 163 -175 170 -172 201 -208 230
-270 27 -59 25 -99 -6 -113 -65 -30 -139 -6 -330 104 -277 161 -338 178 -149
41 199 -144 356 -227 429 -227 28 0 33 -25 14 -78 -25 -71 -140 -48 -507 102
-184 75 -212 81 -167 36 67 -66 301 -181 452 -221 87 -23 101 -37 82 -86 -15
-40 -80 -63 -181 -63 -169 0 -292 47 -405 155 -37 35 -69 62 -71 60 -9 -9 8
-52 39 -99 61 -92 182 -162 323 -187 70 -12 74 -19 23 -46 -79 -41 -209 -10
-307 74 -84 72 -210 262 -251 378 -69 196 -38 353 125 649 110 199 162 248
307 286 84 21 279 27 369 10z m55 -320 c60 -11 111 -20 113 -20 2 0 -10 -16
-28 -36 -38 -43 -50 -73 -50 -121 l0 -36 -42 37 c-24 20 -76 64 -115 98 -40
33 -73 65 -73 70 0 11 38 27 66 27 11 1 69 -8 129 -19z m8362 -212 c-3 -8 -6
-5 -6 6 -1 11 2 17 5 13 3 -3 4 -12 1 -19z m-3743 -558 c32 -17 83 -51 113
-78 82 -71 130 -99 218 -126 156 -49 348 -58 645 -31 206 19 240 15 293 -37
81 -79 243 -148 397 -170 l79 -11 -76 -43 c-109 -63 -176 -115 -278 -218 -245
-248 -389 -523 -520 -992 -30 -110 -74 -256 -97 -326 l-41 -127 -51 -15 c-149
-43 -258 -57 -360 -46 -244 28 -449 131 -624 314 l-91 96 46 92 c123 249 234
617 293 972 26 160 45 415 32 428 -7 7 -16 -15 -27 -68 -9 -44 -18 -83 -19
-89 -4 -13 -14 108 -26 308 -10 159 -5 197 23 197 7 0 39 -14 71 -30z m-4780
-1685 c50 -49 125 -113 167 -142 240 -165 579 -272 1019 -323 96 -11 207 -24
245 -30 39 -5 120 -12 180 -15 61 -4 135 -8 165 -10 97 -6 354 14 448 34 169
37 425 150 545 241 l56 42 43 -29 c24 -16 69 -44 102 -63 48 -27 56 -34 41
-42 -9 -6 -19 -7 -22 -4 -3 3 -18 -3 -32 -13 -34 -25 -171 -94 -241 -121 -459
-184 -942 -232 -1495 -151 -402 59 -705 124 -931 201 -106 36 -231 102 -328
174 -90 67 -92 72 -101 271 l-6 140 27 -35 c15 -19 68 -75 118 -125z m-200
-304 c83 -48 195 -141 238 -198 48 -64 68 -112 68 -165 0 -109 -189 -199 -550
-263 -117 -21 -176 -51 -255 -130 -141 -140 -247 -363 -280 -585 -8 -52 -19
-237 -25 -410 -18 -541 -67 -920 -119 -920 -29 0 -85 46 -276 229 -203 193
-210 205 -242 371 -14 75 -18 146 -18 340 0 224 3 259 28 405 67 380 194 762
327 987 115 192 334 318 627 357 133 18 144 19 284 17 133 -2 136 -3 193 -35z
m3305 -250 c27 -27 35 -106 28 -275 -4 -103 -12 -168 -31 -243 -36 -146 -101
-340 -154 -463 -66 -154 -96 -248 -163 -505 -59 -225 -98 -335 -118 -335 -28
0 -36 49 -39 260 -7 371 31 597 132 797 67 135 100 285 112 525 l7 129 46 41
c46 40 125 87 149 88 6 0 21 -9 31 -19z m2125 -153 c-67 -187 -163 -348 -262
-439 -105 -97 -350 -213 -545 -259 -91 -21 -197 -35 -197 -27 0 4 33 16 73 28
107 32 310 114 406 165 204 108 342 227 401 346 27 56 33 82 38 157 l5 90 31
4 c17 2 41 5 53 5 l23 2 -26 -72z m-4275 -530 c21 -29 80 -125 131 -213 263
-454 349 -591 454 -720 119 -146 202 -355 361 -907 124 -432 162 -535 240
-643 76 -107 182 -181 398 -279 59 -27 107 -53 107 -57 0 -39 -338 49 -528
136 -153 71 -180 110 -393 574 -55 118 -137 284 -184 370 -128 236 -314 626
-526 1102 -202 457 -200 447 -178 579 20 123 55 141 118 58z m1509 -3302 c26
-8 88 -22 138 -30 155 -24 218 -64 304 -191 67 -100 129 -142 323 -220 108
-44 147 -76 147 -120 0 -138 -227 -83 -567 137 -126 82 -222 166 -298 258 -33
41 -95 113 -137 161 -43 48 -78 90 -78 93 0 3 27 -12 61 -34 33 -21 81 -46
107 -54z"/>
<path d="M7281 8585 c-18 -8 -43 -15 -55 -15 -33 0 -66 -28 -87 -74 -23 -51
-24 -89 -3 -149 42 -124 176 -152 284 -59 48 40 64 87 57 160 -12 111 -106
177 -196 137z m44 -59 c25 -11 36 -23 43 -50 17 -60 -4 -106 -57 -124 -39 -14
-66 1 -85 47 -20 51 -20 62 -2 106 17 40 43 45 101 21z"/>
<path d="M6979 7833 c-40 -34 -59 -79 -59 -140 0 -65 28 -109 86 -135 58 -25
102 -18 149 23 89 78 62 211 -53 260 -59 26 -85 24 -123 -8z m124 -40 c23 -45
28 -80 16 -110 -12 -33 -26 -43 -61 -43 -34 0 -48 24 -48 83 0 81 64 128 93
70z"/>
<path d="M6947 7133 c-14 -13 -6 -22 50 -54 67 -39 153 -118 153 -142 0 -28
-37 -57 -73 -57 -46 0 -117 39 -145 80 l-22 33 20 34 c11 19 20 36 20 39 0 13
-63 1 -80 -16 -66 -66 -14 -204 100 -263 47 -25 63 -28 115 -24 114 8 167 58
173 162 2 47 -1 67 -17 92 -23 37 -95 88 -152 108 -43 15 -130 20 -142 8z"/>
<path d="M8720 16205 c-116 -26 -237 -81 -219 -100 3 -3 37 2 75 12 95 24 379
24 520 0 216 -36 771 -161 951 -213 269 -78 543 -213 858 -424 140 -94 194
-125 202 -116 13 13 -113 136 -247 242 -196 155 -481 309 -717 387 -185 62
-557 148 -853 198 -166 27 -476 35 -570 14z"/>
<path d="M11453 16053 c-4 -21 -8 -130 -8 -243 0 -211 7 -284 28 -277 22 7 31
83 31 277 0 194 -9 270 -31 277 -7 3 -15 -12 -20 -34z"/>
<path d="M7745 15970 c-10 -16 54 -70 120 -101 68 -32 158 -49 257 -49 76 0
168 17 168 31 0 16 -43 27 -181 44 -160 19 -198 27 -285 60 -77 29 -71 28 -79
15z"/>
<path d="M9010 15860 c-100 -8 -218 -27 -235 -38 -18 -11 39 -20 140 -21 403
-5 949 -69 1207 -141 245 -69 482 -190 668 -339 41 -33 76 -56 78 -51 13 36
-131 178 -278 276 -155 103 -373 197 -545 234 -303 67 -772 103 -1035 80z"/>
<path d="M11885 15538 c-150 -13 -297 -68 -379 -143 -37 -34 -47 -65 -21 -65
9 0 44 9 78 21 110 37 228 58 452 79 252 24 330 38 330 60 0 8 -18 21 -40 28
-51 18 -303 29 -420 20z"/>
<path d="M10335 15256 c-117 -23 -226 -72 -287 -131 -27 -25 -37 -55 -20 -55
5 0 53 13 108 30 130 39 219 56 389 75 219 24 245 30 245 50 0 25 -64 38 -215
41 -98 2 -174 -1 -220 -10z"/>
<path d="M8010 15248 c0 -41 173 -145 278 -167 74 -15 234 -13 315 4 75 16
177 58 177 73 0 19 -33 22 -198 16 -199 -8 -285 3 -429 51 -111 37 -143 42
-143 23z"/>
<path d="M11330 15147 c0 -7 30 -42 66 -77 280 -274 483 -641 554 -1002 28
-146 40 -285 47 -588 10 -432 -27 -692 -167 -1177 -69 -238 -67 -281 7 -150
143 252 256 638 294 1002 13 134 7 550 -11 720 -13 123 -52 301 -92 420 -43
129 -136 320 -210 427 -74 110 -266 307 -356 367 -80 54 -132 77 -132 58z"/>
<path d="M10695 15042 c-51 -11 -145 -53 -343 -154 -151 -77 -315 -155 -365
-174 -112 -43 -289 -87 -417 -104 -116 -15 -140 -25 -86 -36 51 -9 212 2 317
22 193 36 320 89 633 263 197 109 311 156 405 166 76 9 92 15 66 25 -32 13
-134 9 -210 -8z"/>
<path d="M7290 15031 c-71 -23 -112 -44 -155 -82 -60 -53 -45 -76 36 -54 80
23 236 30 311 15 79 -15 214 -69 282 -112 28 -18 95 -75 148 -126 53 -52 102
-91 107 -87 40 24 -32 179 -130 276 -51 52 -88 78 -160 113 -52 25 -121 52
-154 61 -80 20 -215 19 -285 -4z"/>
<path d="M9548 14831 c-119 -102 -206 -134 -483 -181 -103 -17 -194 -34 -202
-37 -19 -8 -14 -93 7 -103 8 -5 51 -13 95 -20 44 -7 166 -37 270 -67 264 -77
293 -83 438 -83 207 0 354 37 632 160 73 32 186 75 251 96 66 20 123 40 129
45 15 15 -140 10 -220 -6 -41 -9 -146 -41 -232 -71 -271 -95 -340 -109 -538
-108 l-170 1 -185 55 -185 56 45 11 c195 50 338 141 395 251 27 52 13 52 -47
1z"/>
<path d="M7246 14035 c-61 -21 -108 -66 -144 -136 -54 -106 -55 -209 -4 -288
82 -127 260 -80 336 89 32 71 40 133 26 195 -26 114 -118 174 -214 140z"/>
<path d="M9532 13960 c-43 -10 -60 -26 -45 -41 6 -6 59 -24 118 -40 293 -80
410 -212 450 -509 13 -98 43 -89 71 20 39 152 -25 349 -147 454 -115 98 -310
149 -447 116z"/>
<path d="M9365 13362 c-98 -46 -174 -190 -162 -307 24 -229 261 -247 369 -28
28 58 33 77 33 143 -1 123 -56 199 -152 207 -33 2 -61 -2 -88 -15z"/>
<path d="M7677 13026 c-91 -33 -147 -101 -147 -179 0 -41 15 -50 24 -14 9 36
67 98 110 118 56 25 159 25 229 -1 82 -31 146 -108 165 -196 13 -62 32 -54 32
13 0 156 -133 274 -308 273 -37 -1 -84 -7 -105 -14z"/>
<path d="M6485 12269 c-9 -23 12 -94 40 -139 26 -41 65 -73 118 -95 34 -14 34
-15 26 -57 -23 -120 0 -380 46 -527 91 -285 372 -549 660 -620 353 -87 639
-63 920 76 179 90 365 273 457 450 31 59 35 63 68 63 43 0 135 42 173 78 25
23 67 91 67 107 0 13 -26 2 -70 -30 -147 -108 -234 -100 -293 28 -18 37 -36
66 -42 64 -15 -5 -18 -76 -6 -117 11 -35 47 -81 78 -98 15 -9 14 -14 -12 -53
-48 -69 -224 -240 -308 -297 -198 -137 -424 -199 -679 -189 -312 12 -533 97
-712 273 -166 164 -254 374 -295 704 -16 123 -18 117 42 134 96 28 188 104
217 180 23 61 2 62 -70 0 -102 -87 -179 -114 -245 -85 -41 18 -60 36 -143 131
-25 29 -32 32 -37 19z"/>
<path d="M3508 3745 c-161 -41 -248 -132 -277 -291 -14 -76 -14 -251 0 -259 6
-4 12 -5 14 -4 1 2 8 50 14 106 18 169 82 296 171 340 189 93 527 16 794 -180
119 -88 205 -182 351 -383 205 -282 297 -369 491 -460 239 -112 284 -136 333
-180 94 -84 127 -186 97 -300 -18 -70 -19 -84 -8 -84 12 0 39 59 58 123 19 70
13 128 -21 203 -47 106 -133 173 -370 292 -229 114 -291 171 -480 438 -136
192 -191 259 -274 336 -135 125 -323 233 -496 284 -113 33 -306 42 -397 19z"/>
<path d="M3265 2983 c22 -123 77 -220 194 -344 117 -125 202 -190 555 -426
321 -215 472 -300 618 -352 229 -80 452 -82 611 -6 59 28 115 70 106 79 -4 4
-40 -5 -81 -18 -184 -62 -384 -49 -608 41 -122 49 -234 112 -400 223 -80 54
-239 160 -355 235 -235 154 -303 203 -390 284 -93 86 -151 158 -195 243 -45
85 -67 101 -55 41z"/>
</g>
</svg>
